<?xml version="1.0" standalone="no"?>
<!DOCTYPE svg PUBLIC "-//W3C//DTD SVG 20010904//EN"
 "http://www.w3.org/TR/2001/REC-SVG-20010904/DTD/svg10.dtd">
<svg version="1.0" xmlns="http://www.w3.org/2000/svg"
 width="671.000000pt" height="671.000000pt" viewBox="0 0 671.000000 671.000000"
 preserveAspectRatio="xMidYMid meet">
<metadata>
Created by potrace 1.14, written by Peter Selinger 2001-2017
</metadata>
<g transform="translate(0.000000,671.000000) scale(0.100000,-0.100000)"
fill="#000000" stroke="none">
<path d="M0 3355 l0 -3355 3355 0 3355 0 0 3355 0 3355 -3355 0 -3355 0 0
-3355z m1145 1360 c50 -8 115 -22 145 -31 192 -56 342 -203 395 -386 l16 -58
150 0 149 0 0 -113 c0 -63 3 -117 7 -120 3 -4 19 14 33 41 37 64 118 138 188
170 53 25 66 27 187 27 111 -1 138 -4 187 -24 80 -31 168 -99 215 -164 l39
-54 28 39 c34 47 132 122 196 150 134 59 365 77 530 43 111 -23 233 -86 303
-157 l57 -59 27 33 c120 147 249 204 442 196 77 -3 107 -9 153 -30 70 -32 143
-99 183 -167 17 -28 33 -51 38 -51 4 0 7 54 7 120 l0 120 385 0 384 0 3 -452
3 -453 28 -48 c70 -118 254 -131 354 -26 62 65 63 76 63 550 l0 429 225 0 225
0 0 -700 0 -700 -215 0 -214 0 -3 133 -3 132 -26 -50 c-44 -83 -103 -141 -182
-180 -179 -87 -401 -63 -532 57 l-55 50 0 -104 c0 -173 -42 -290 -139 -387
-102 -102 -252 -164 -441 -183 -398 -40 -709 102 -779 356 -6 22 -8 42 -5 45
3 3 96 11 207 17 181 10 203 9 212 -5 26 -41 80 -82 127 -96 60 -17 176 -20
231 -4 52 14 122 84 136 134 12 45 15 325 3 325 -4 0 -16 -16 -27 -36 -26 -49
-99 -112 -161 -140 -162 -72 -376 -52 -529 50 l-65 44 0 -79 0 -79 -210 0
-210 0 0 95 c0 88 -10 121 -25 76 -11 -34 -103 -119 -158 -145 -76 -35 -127
-45 -237 -46 -156 0 -253 34 -345 121 l-52 49 -29 -31 c-100 -105 -300 -161
-456 -128 -112 24 -213 97 -269 193 l-29 51 0 -377 0 -378 -225 0 -225 0 0
330 0 330 -52 -34 c-75 -49 -190 -93 -293 -111 -102 -18 -309 -20 -422 -4
-222 31 -413 149 -496 307 -39 75 -77 211 -77 280 l0 42 214 0 213 0 7 -41
c13 -79 70 -157 141 -191 100 -49 268 -51 367 -6 108 50 146 161 83 243 -40
54 -123 88 -324 136 -229 53 -291 73 -379 120 -192 102 -272 230 -272 437 0
114 25 195 85 286 138 209 471 323 790 271z"/>
<path d="M935 4349 c-97 -9 -164 -50 -191 -115 -19 -45 -18 -70 7 -121 34 -70
124 -112 324 -153 205 -41 328 -88 458 -174 l27 -18 0 186 0 186 -139 0 -140
0 -15 53 c-16 56 -56 102 -114 131 -42 21 -140 33 -217 25z"/>
<path d="M3316 3925 c-46 -16 -90 -56 -107 -97 l-12 -29 -129 3 -130 3 6 -35
c4 -19 9 -66 13 -103 4 -48 10 -67 18 -63 71 27 167 48 282 61 189 21 275 41
301 68 56 59 13 169 -76 195 -51 16 -118 14 -166 -3z"/>
<path d="M2205 3901 c-144 -37 -215 -178 -202 -399 7 -117 27 -187 70 -244 89
-118 274 -119 362 -2 53 70 70 141 69 289 -1 108 -4 139 -22 186 -26 66 -84
137 -126 154 -42 18 -115 25 -151 16z"/>
<path d="M4525 3903 c-85 -19 -130 -54 -170 -133 -65 -129 -60 -357 11 -478
49 -83 150 -124 250 -102 124 28 190 128 201 306 14 219 -61 374 -196 403 -54
11 -62 12 -96 4z"/>
<path d="M3550 3455 c-19 -7 -87 -22 -150 -35 -181 -35 -240 -77 -240 -170 0
-41 5 -55 30 -84 40 -45 87 -60 165 -53 84 6 159 47 196 106 32 50 42 99 37
187 l-3 61 -35 -12z"/>
</g>
</svg>
