<?xml version="1.0" standalone="no"?>
<!DOCTYPE svg PUBLIC "-//W3C//DTD SVG 20010904//EN"
 "http://www.w3.org/TR/2001/REC-SVG-20010904/DTD/svg10.dtd">
<svg version="1.0" xmlns="http://www.w3.org/2000/svg"
 width="1925.000000pt" height="1925.000000pt" viewBox="0 0 1925.000000 1925.000000"
 preserveAspectRatio="xMidYMid meet">
<metadata>
Created by potrace 1.14, written by Peter Selinger 2001-2017
</metadata>
<g transform="translate(0.000000,1925.000000) scale(0.100000,-0.100000)"
fill="#000000" stroke="none">
<path d="M16930 18599 c-140 -32 -372 -84 -515 -114 -143 -31 -539 -119 -880
-196 -341 -77 -773 -173 -960 -214 -187 -40 -639 -141 -1005 -224 -367 -82
-733 -164 -815 -181 -83 -17 -460 -101 -840 -186 -379 -86 -812 -182 -962
-214 -149 -33 -583 -129 -964 -215 -380 -86 -744 -167 -808 -180 -64 -13 -468
-103 -899 -200 -430 -96 -835 -186 -900 -200 -64 -13 -349 -76 -632 -140 -524
-118 -947 -212 -1461 -325 l-287 -63 -140 -406 c-77 -223 -156 -453 -176 -511
-31 -94 -128 -375 -238 -690 -22 -63 -86 -251 -143 -416 l-102 -301 59 -89
c108 -161 206 -398 239 -577 l12 -67 484 0 483 0 0 -365 c0 -309 2 -365 14
-365 8 0 35 40 61 91 121 241 309 434 530 546 178 91 343 131 566 140 359 14
661 -69 942 -257 173 -115 344 -291 450 -462 23 -37 44 -68 47 -68 3 1 29 37
59 82 213 316 603 555 1066 651 204 43 311 52 605 51 232 0 297 -4 419 -23
470 -72 821 -231 1077 -486 55 -55 123 -135 151 -178 l52 -77 60 87 c195 285
472 497 786 602 293 97 647 107 933 25 318 -91 594 -329 756 -651 64 -129 66
-122 66 292 l0 365 1195 0 1195 0 0 -1230 c0 -817 4 -1263 11 -1328 19 -173
81 -324 178 -434 49 -56 158 -126 241 -154 49 -17 108 -28 168 -31 l92 -6 0
4477 c0 2462 -3 4476 -7 4475 -5 -1 -123 -27 -263 -60z"/>
<path d="M3695 11707 c136 -70 306 -180 393 -253 l42 -37 0 182 0 181 -287 0
-288 -1 140 -72z"/>
<path d="M6142 11060 c-167 -23 -321 -109 -428 -238 -93 -112 -204 -368 -204
-470 0 -44 55 -213 97 -297 80 -160 192 -278 325 -345 112 -56 204 -74 347
-67 180 8 294 54 417 169 80 75 123 134 173 234 44 89 101 260 101 303 0 52
-49 204 -99 306 -126 254 -320 390 -586 408 -44 3 -109 1 -143 -3z"/>
<path d="M13251 11059 c-155 -23 -263 -79 -376 -193 -113 -114 -188 -252 -234
-429 l-20 -78 24 -85 c90 -308 287 -516 540 -569 102 -21 265 -19 359 5 251
64 447 278 527 577 l22 81 -27 93 c-71 249 -214 442 -397 535 -110 55 -289 82
-418 63z"/>
<path d="M10023 10444 c-7 -3 -67 -16 -135 -29 -68 -13 -113 -24 -101 -24 27
-1 226 37 256 49 12 5 15 9 7 9 -8 -1 -20 -3 -27 -5z"/>
<path d="M9713 10383 c9 -2 25 -2 35 0 9 3 1 5 -18 5 -19 0 -27 -2 -17 -5z"/>
<path d="M9648 10373 c6 -2 18 -2 25 0 6 3 1 5 -13 5 -14 0 -19 -2 -12 -5z"/>
<path d="M2906 9866 c-3 -13 -9 -32 -12 -41 -6 -16 -5 -16 22 -1 59 32 61 34
39 50 -29 22 -42 19 -49 -8z"/>
<path d="M10025 9634 c-33 -8 -163 -32 -290 -54 -211 -36 -358 -70 -378 -89
-14 -14 102 -31 204 -31 194 0 393 64 514 164 34 29 31 30 -50 10z"/>
<path d="M10170 8941 c-96 -98 -179 -161 -296 -221 -85 -45 -70 -45 37 -1 92
39 167 91 241 169 49 52 118 145 105 141 -1 0 -40 -40 -87 -88z"/>
<path d="M14071 8514 c-12 -25 -42 -78 -68 -116 -126 -191 -315 -335 -556
-424 l-92 -35 95 5 c350 20 591 196 654 476 26 121 27 140 6 140 -13 0 -26
-15 -39 -46z"/>
<path d="M5490 7370 l0 -1140 -680 0 -680 0 0 1035 0 1036 -67 -57 c-197 -168
-507 -315 -823 -393 -264 -64 -521 -93 -842 -95 l-218 -1 -14 -40 c-58 -163
-173 -494 -251 -725 -51 -151 -143 -419 -205 -595 -61 -176 -152 -437 -200
-580 -89 -262 -101 -297 -250 -725 -45 -129 -119 -345 -165 -480 -45 -135
-114 -335 -153 -445 -93 -264 -157 -450 -247 -713 -77 -227 -148 -434 -210
-612 -21 -58 -92 -267 -160 -465 -140 -411 -281 -815 -301 -862 l-13 -33 8595
0 8594 0 0 3196 c0 3040 -1 3196 -17 3191 -229 -76 -326 -91 -563 -92 -221 0
-325 15 -496 70 -213 70 -368 167 -535 335 l-117 117 -5 -356 c-4 -318 -7
-367 -26 -456 -123 -563 -499 -950 -1119 -1155 -504 -166 -1170 -195 -1722
-74 -620 136 -1078 485 -1238 944 -27 76 -66 239 -60 246 3 2 360 24 402 24
28 0 25 4 -55 88 -84 87 -166 192 -190 245 l-12 27 -524 0 -523 0 0 295 c0
162 -4 295 -9 295 -4 0 -25 -29 -46 -65 -93 -159 -248 -316 -403 -408 -252
-149 -596 -217 -955 -188 -391 32 -678 142 -892 342 -62 59 -158 174 -168 202
-2 7 -58 -40 -123 -103 -301 -291 -648 -430 -1079 -432 -229 -2 -398 28 -565
100 -268 114 -476 305 -609 561 -23 44 -46 81 -52 81 -5 0 -9 -427 -9 -1140z"/>
<path d="M11680 8333 l0 -53 53 0 52 1 -29 23 c-15 13 -39 37 -52 52 l-23 29
-1 -52z"/>
</g>
</svg>
